<?xml version="1.0" encoding="UTF-8"?>
<svg width="700pt" height="700pt" version="1.1" viewBox="0 0 700 700" xmlns="http://www.w3.org/2000/svg"
    xmlns:xlink="http://www.w3.org/1999/xlink">
    <g>
        <path fill="#F8C929"
            d="m351.14 175c-11.199-59.238-74.375-79.625-118.48-86.188 9.8867 12.512 17.762 30.887 21.086 52.676 5.25 34.211-0.69922 74.375-21.086 82.25-11.199 4.6367-23.711 3.3242-36.227-2.625-25.023-12.512-47.336-44.102-59.238-84.875-11.812-42.086-32.898-62.477-51.363-72.363 17.148 32.898 10.5 86.887 5.25 132.91-2.625 21.699-4.6367 43.398-4.6367 59.238 2.625 128.98 83.562 148.75 107.27 152.69-0.69922-5.9492-0.69922-11.199-0.69922-17.148 0.17969-101.33 66.594-187.61 158.12-216.57z" />
        <path fill="#222D2F"
            d="m420.18 358.66c-14.438 0-26.336 11.812-26.336 26.336 0 14.438 11.812 26.336 26.336 26.336 14.523 0 26.949-11.812 26.949-26.336 0.085938-14.523-12.426-26.336-26.949-26.336z" />
        <path d="m627.46 390.86c0 1.1367-0.085938 2.1875-0.085938 3.3242h0.085938c0.70312 5.25 0-8.5742 0-3.3242z" />
        <path fill="#262117"
            d="m578.81 384.3c0-5.25 4.6367-9.8867 9.8867-9.8867h37.539c0-0.69922-2.0117-19.773-2.0117-20.387-7.2617-42.086-27.648-80.324-56.613-109.2l-36.836 36.836c-2.0117 2.0117-4.6367 2.625-7.2617 2.625s-5.25-0.69922-7.2617-2.625c-3.9375-3.9375-3.9375-9.8867 0-13.824l36.227-36.227c-33.602-28.262-75.688-46.023-122.41-48.039v42.086c0 5.25-4.6367 9.8867-9.8867 9.8867s-9.8867-4.6367-9.8867-9.8867v-42.086c-50.664 2.625-96.773 23.012-131.6 55.914l29.574 29.574c3.9375 3.9375 3.9375 9.8867 0 13.824-2.0117 2.0117-4.6367 2.625-7.2617 2.625s-5.25-0.69922-7.2617-2.625l-28.961-28.961c-28.961 32.898-48.039 74.988-51.363 121.1h38.148c5.25 0 9.8867 4.6367 9.8867 9.8867s-4.6367 9.8867-9.8867 9.8867h-38.852c2.0117 65.801 34.211 126.96 88.199 165.2h238.18c54.336-38.148 87.062-99.926 88.113-165.81h-38.762c-4.9922 0-9.6289-4.6367-9.6289-9.8867zm-25.023 10.5h-88.203c-4.6367 20.387-23.012 36.227-45.414 36.227-25.023 0-46.023-21.086-46.023-46.023 0-25.023 20.387-46.023 46.023-46.023 22.398 0 40.773 15.137 45.414 36.227h87.5c5.25 0 10.5 4.6367 10.5 9.8867 0.089843 5.1562-4.5469 9.707-9.7969 9.707z" />
        <path fill="#FF4000"
            d="m403.11 73.676c11.812 8.5742 23.711 17.762 32.898 26.949 2.0117-17.148-0.69922-43.398-29.574-62.477-12.512-8.5742-24.324-15.137-34.914-21.086-10.5-5.9492-20.387-11.199-28.961-17.148 3.3242 13.125 10.5 29.574 26.949 46.023 9.2773 9.9766 21.789 19.25 33.602 27.738z" />
    </g>
</svg>